<svg width="194" height="48" viewBox="0 0 194 48" fill="none" xmlns="http://www.w3.org/2000/svg">
<path d="M14.0166 24.3291H4.95898V18.6162H14.0166C15.4163 18.6162 16.5557 18.3883 17.4346 17.9326C18.3135 17.4606 18.9564 16.8096 19.3633 15.9795C19.7702 15.1494 19.9736 14.2135 19.9736 13.1719C19.9736 12.1139 19.7702 11.1292 19.3633 10.2178C18.9564 9.30632 18.3135 8.57389 17.4346 8.02051C16.5557 7.46712 15.4163 7.19043 14.0166 7.19043H7.49805V37H0.173828V1.45312H14.0166C16.7998 1.45312 19.1842 1.95768 21.1699 2.9668C23.1719 3.95964 24.7018 5.33496 25.7598 7.09277C26.8177 8.85059 27.3467 10.8607 27.3467 13.123C27.3467 15.418 26.8177 17.4036 25.7598 19.0801C24.7018 20.7565 23.1719 22.0505 21.1699 22.9619C19.1842 23.8734 16.7998 24.3291 14.0166 24.3291ZM38.9922 16.3457V37H31.9609V10.584H38.5771L38.9922 16.3457ZM46.9512 10.4131L46.8291 16.9316C46.4873 16.8828 46.0723 16.8421 45.584 16.8096C45.112 16.7607 44.6807 16.7363 44.29 16.7363C43.2972 16.7363 42.4346 16.8665 41.7021 17.127C40.986 17.3711 40.3838 17.7373 39.8955 18.2256C39.4235 18.7139 39.0654 19.3079 38.8213 20.0078C38.5934 20.7077 38.4632 21.5052 38.4307 22.4004L37.0146 21.9609C37.0146 20.252 37.1855 18.6813 37.5273 17.249C37.8691 15.8005 38.3656 14.5391 39.0166 13.4648C39.6839 12.3906 40.4977 11.5605 41.458 10.9746C42.4183 10.3887 43.5169 10.0957 44.7539 10.0957C45.1445 10.0957 45.5433 10.1283 45.9502 10.1934C46.3571 10.2422 46.6908 10.3154 46.9512 10.4131ZM57.6934 10.584V37H50.6377V10.584H57.6934ZM50.1982 3.69922C50.1982 2.67383 50.5563 1.82747 51.2725 1.16016C51.9886 0.492839 52.9489 0.15918 54.1533 0.15918C55.3415 0.15918 56.2936 0.492839 57.0098 1.16016C57.7422 1.82747 58.1084 2.67383 58.1084 3.69922C58.1084 4.72461 57.7422 5.57096 57.0098 6.23828C56.2936 6.9056 55.3415 7.23926 54.1533 7.23926C52.9489 7.23926 51.9886 6.9056 51.2725 6.23828C50.5563 5.57096 50.1982 4.72461 50.1982 3.69922ZM70.3887 16.2236V37H63.3574V10.584H69.9492L70.3887 16.2236ZM69.3633 22.8643H67.459C67.459 20.9111 67.7113 19.1533 68.2158 17.5908C68.7204 16.012 69.4284 14.6693 70.3398 13.5625C71.2513 12.4395 72.3337 11.585 73.5869 10.999C74.8564 10.3968 76.2725 10.0957 77.835 10.0957C79.0719 10.0957 80.2031 10.2747 81.2285 10.6328C82.2539 10.9909 83.1328 11.5605 83.8652 12.3418C84.6139 13.123 85.1836 14.1566 85.5742 15.4424C85.9811 16.7282 86.1846 18.2988 86.1846 20.1543V37H79.1045V20.1299C79.1045 18.958 78.9417 18.0465 78.6162 17.3955C78.2907 16.7445 77.8105 16.2887 77.1758 16.0283C76.5573 15.7516 75.7923 15.6133 74.8809 15.6133C73.9368 15.6133 73.1149 15.8005 72.415 16.1748C71.7314 16.5492 71.1618 17.07 70.7061 17.7373C70.2666 18.3883 69.9329 19.1533 69.7051 20.0322C69.4772 20.9111 69.3633 21.8551 69.3633 22.8643ZM97.1953 10.584L101.565 18.6162L106.058 10.584H113.553L106.082 23.499L113.895 37H106.375L101.614 28.5039L96.8535 37H89.334L97.1465 23.499L89.6758 10.584H97.1953Z" fill="#B8B8FF"/>
<path d="M124.002 15.6621V47.1562H116.971V10.584H123.489L124.002 15.6621ZM140.726 23.499V24.0117C140.726 25.9323 140.498 27.7145 140.042 29.3584C139.603 31.0023 138.951 32.4346 138.089 33.6553C137.226 34.8597 136.152 35.8037 134.866 36.4873C133.597 37.1546 132.132 37.4883 130.472 37.4883C128.86 37.4883 127.461 37.1628 126.272 36.5117C125.084 35.8607 124.083 34.9492 123.27 33.7773C122.472 32.5892 121.829 31.2139 121.341 29.6514C120.853 28.0889 120.478 26.4124 120.218 24.6221V23.2793C120.478 21.3587 120.853 19.6009 121.341 18.0059C121.829 16.3945 122.472 15.0029 123.27 13.8311C124.083 12.6429 125.076 11.7233 126.248 11.0723C127.436 10.4212 128.828 10.0957 130.423 10.0957C132.099 10.0957 133.572 10.4131 134.842 11.0479C136.128 11.6826 137.202 12.5941 138.064 13.7822C138.943 14.9704 139.603 16.3864 140.042 18.0303C140.498 19.6742 140.726 21.4971 140.726 23.499ZM133.67 24.0117V23.499C133.67 22.376 133.572 21.3424 133.377 20.3984C133.198 19.4382 132.905 18.5999 132.498 17.8838C132.107 17.1676 131.587 16.6143 130.936 16.2236C130.301 15.8167 129.528 15.6133 128.616 15.6133C127.656 15.6133 126.834 15.7679 126.15 16.0771C125.483 16.3864 124.938 16.834 124.515 17.4199C124.091 18.0059 123.774 18.7057 123.562 19.5195C123.351 20.3333 123.221 21.2529 123.172 22.2783V25.6719C123.253 26.8763 123.481 27.9587 123.855 28.9189C124.23 29.863 124.808 30.6117 125.589 31.165C126.37 31.7184 127.396 31.9951 128.665 31.9951C129.593 31.9951 130.374 31.7917 131.009 31.3848C131.644 30.9616 132.156 30.3838 132.547 29.6514C132.954 28.9189 133.239 28.0726 133.401 27.1123C133.58 26.152 133.67 25.1185 133.67 24.0117ZM159.354 31.043V19.2754C159.354 18.429 159.215 17.7048 158.938 17.1025C158.662 16.484 158.23 16.0039 157.645 15.6621C157.075 15.3203 156.334 15.1494 155.423 15.1494C154.642 15.1494 153.966 15.2878 153.396 15.5645C152.827 15.8249 152.387 16.2074 152.078 16.7119C151.769 17.2002 151.614 17.778 151.614 18.4453H144.583C144.583 17.3223 144.843 16.2562 145.364 15.2471C145.885 14.238 146.642 13.3509 147.635 12.5859C148.628 11.8047 149.808 11.1943 151.175 10.7549C152.558 10.3154 154.104 10.0957 155.813 10.0957C157.864 10.0957 159.687 10.4375 161.282 11.1211C162.877 11.8047 164.131 12.8301 165.042 14.1973C165.97 15.5645 166.434 17.2734 166.434 19.3242V30.6279C166.434 32.0765 166.523 33.2646 166.702 34.1924C166.881 35.1038 167.142 35.9014 167.483 36.585V37H160.379C160.037 36.2839 159.777 35.3887 159.598 34.3145C159.435 33.224 159.354 32.1335 159.354 31.043ZM160.281 20.9111L160.33 24.8906H156.399C155.472 24.8906 154.666 24.9964 153.982 25.208C153.299 25.4196 152.737 25.7207 152.298 26.1113C151.858 26.4857 151.533 26.9251 151.321 27.4297C151.126 27.9342 151.028 28.4876 151.028 29.0898C151.028 29.6921 151.167 30.2373 151.443 30.7256C151.72 31.1976 152.119 31.5719 152.64 31.8486C153.16 32.109 153.771 32.2393 154.471 32.2393C155.529 32.2393 156.448 32.0277 157.229 31.6045C158.011 31.1813 158.613 30.6605 159.036 30.042C159.476 29.4235 159.703 28.8376 159.72 28.2842L161.575 31.2627C161.315 31.93 160.957 32.6217 160.501 33.3379C160.062 34.054 159.5 34.7295 158.816 35.3643C158.133 35.9827 157.311 36.4954 156.351 36.9023C155.39 37.293 154.251 37.4883 152.933 37.4883C151.256 37.4883 149.734 37.1546 148.367 36.4873C147.016 35.8037 145.942 34.8678 145.145 33.6797C144.363 32.4753 143.973 31.1081 143.973 29.5781C143.973 28.1947 144.233 26.9658 144.754 25.8916C145.275 24.8174 146.04 23.9141 147.049 23.1816C148.074 22.4329 149.352 21.8714 150.882 21.4971C152.412 21.1064 154.186 20.9111 156.204 20.9111H160.281ZM179.3 34.0215L186.307 10.584H193.851L183.23 40.9795C183.003 41.6468 182.693 42.363 182.303 43.1279C181.928 43.8929 181.416 44.6172 180.765 45.3008C180.13 46.0007 179.324 46.5703 178.348 47.0098C177.387 47.4492 176.207 47.6689 174.808 47.6689C174.14 47.6689 173.595 47.6283 173.172 47.5469C172.749 47.4655 172.244 47.3516 171.658 47.2051V42.0537C171.837 42.0537 172.024 42.0537 172.22 42.0537C172.415 42.07 172.602 42.0781 172.781 42.0781C173.709 42.0781 174.466 41.9723 175.052 41.7607C175.638 41.5492 176.11 41.2236 176.468 40.7842C176.826 40.361 177.111 39.8076 177.322 39.124L179.3 34.0215ZM176.37 10.584L182.107 29.7246L183.108 37.1709L178.323 37.6836L168.826 10.584H176.37Z" fill="white"/>
</svg>
