<svg width="515" height="230" viewBox="0 0 515 230" fill="none" xmlns="http://www.w3.org/2000/svg">
<ellipse cx="258" cy="96.623" rx="52" ry="51.623" fill="white"/>
<ellipse cx="258" cy="134.377" rx="52" ry="51.623" fill="#9381FF"/>
<path d="M130.892 147.851H118.074V140.468H130.892C132.988 140.468 134.686 140.126 135.984 139.442C137.306 138.736 138.274 137.779 138.89 136.571C139.505 135.341 139.812 133.939 139.812 132.367C139.812 130.84 139.505 129.416 138.89 128.095C138.274 126.773 137.306 125.702 135.984 124.882C134.686 124.062 132.988 123.651 130.892 123.651H121.15V166H111.751V116.234H130.892C134.765 116.234 138.069 116.929 140.804 118.319C143.561 119.687 145.657 121.589 147.093 124.027C148.551 126.443 149.28 129.2 149.28 132.299C149.28 135.512 148.551 138.28 147.093 140.604C145.657 142.929 143.561 144.717 140.804 145.971C138.069 147.224 134.765 147.851 130.892 147.851ZM165.003 136.571V166H155.979V129.018H164.524L165.003 136.571ZM176.248 128.778L176.111 137.187C175.61 137.095 175.04 137.027 174.402 136.981C173.787 136.936 173.206 136.913 172.659 136.913C171.269 136.913 170.05 137.107 169.002 137.494C167.954 137.859 167.076 138.394 166.37 139.101C165.687 139.807 165.162 140.673 164.798 141.698C164.433 142.701 164.228 143.84 164.183 145.116L162.234 144.877C162.234 142.53 162.474 140.354 162.952 138.349C163.431 136.343 164.126 134.589 165.037 133.085C165.949 131.581 167.088 130.419 168.455 129.599C169.845 128.756 171.44 128.334 173.24 128.334C173.742 128.334 174.277 128.38 174.847 128.471C175.439 128.539 175.906 128.642 176.248 128.778ZM190.774 129.018V166H181.717V129.018H190.774ZM181.102 119.345C181.102 118 181.557 116.884 182.469 115.995C183.403 115.106 184.656 114.662 186.229 114.662C187.801 114.662 189.043 115.106 189.954 115.995C190.888 116.884 191.355 118 191.355 119.345C191.355 120.666 190.888 121.771 189.954 122.66C189.043 123.549 187.801 123.993 186.229 123.993C184.656 123.993 183.403 123.549 182.469 122.66C181.557 121.771 181.102 120.666 181.102 119.345ZM208.24 136.913V166H199.217V129.018H207.693L208.24 136.913ZM206.805 146.176H204.139C204.161 143.487 204.526 141.049 205.232 138.861C205.939 136.674 206.93 134.794 208.206 133.222C209.505 131.649 211.043 130.442 212.82 129.599C214.598 128.756 216.58 128.334 218.768 128.334C220.545 128.334 222.151 128.585 223.587 129.086C225.022 129.587 226.253 130.385 227.278 131.479C228.326 132.572 229.124 134.008 229.671 135.785C230.241 137.54 230.525 139.704 230.525 142.279V166H221.434V142.211C221.434 140.525 221.183 139.192 220.682 138.212C220.203 137.232 219.497 136.537 218.562 136.127C217.651 135.717 216.523 135.512 215.179 135.512C213.789 135.512 212.57 135.797 211.521 136.366C210.496 136.913 209.63 137.676 208.924 138.656C208.24 139.636 207.716 140.764 207.352 142.04C206.987 143.316 206.805 144.695 206.805 146.176ZM245.564 129.018L252.161 140.775L258.86 129.018H268.67L257.801 147.133L269.114 166H259.305L252.229 153.661L245.12 166H235.311L246.59 147.133L235.789 129.018H245.564Z" fill="#B8B8FF"/>
<path d="M282.923 136.127V180.219H273.865V129.018H282.239L282.923 136.127ZM306.678 147.133V147.851C306.678 150.539 306.359 153.035 305.721 155.336C305.105 157.615 304.194 159.608 302.986 161.317C301.779 163.004 300.275 164.325 298.475 165.282C296.697 166.216 294.646 166.684 292.322 166.684C290.044 166.684 288.061 166.251 286.375 165.385C284.689 164.496 283.265 163.243 282.103 161.625C280.94 160.007 280.006 158.127 279.3 155.985C278.616 153.821 278.104 151.462 277.762 148.91V146.62C278.104 143.909 278.616 141.448 279.3 139.237C280.006 137.004 280.94 135.079 282.103 133.461C283.265 131.82 284.677 130.556 286.341 129.667C288.027 128.778 289.998 128.334 292.254 128.334C294.601 128.334 296.663 128.778 298.44 129.667C300.241 130.556 301.756 131.832 302.986 133.495C304.217 135.159 305.14 137.141 305.755 139.442C306.37 141.744 306.678 144.307 306.678 147.133ZM297.62 147.851V147.133C297.62 145.492 297.472 143.977 297.176 142.587C296.88 141.174 296.424 139.944 295.809 138.896C295.193 137.825 294.396 136.993 293.416 136.4C292.436 135.808 291.251 135.512 289.861 135.512C288.471 135.512 287.275 135.74 286.272 136.195C285.27 136.651 284.45 137.3 283.812 138.144C283.174 138.987 282.672 139.989 282.308 141.151C281.966 142.291 281.738 143.555 281.624 144.945V150.619C281.829 152.305 282.228 153.821 282.82 155.165C283.413 156.509 284.279 157.58 285.418 158.378C286.58 159.175 288.084 159.574 289.93 159.574C291.32 159.574 292.505 159.267 293.484 158.651C294.464 158.036 295.262 157.193 295.877 156.122C296.492 155.028 296.937 153.775 297.21 152.362C297.483 150.95 297.62 149.446 297.62 147.851ZM333.646 158.139V141.083C333.646 139.83 333.429 138.747 332.996 137.836C332.563 136.924 331.902 136.218 331.014 135.717C330.125 135.215 328.997 134.965 327.63 134.965C326.422 134.965 325.363 135.17 324.451 135.58C323.562 135.99 322.879 136.571 322.4 137.323C321.922 138.052 321.683 138.896 321.683 139.853H312.625C312.625 138.326 312.99 136.879 313.719 135.512C314.448 134.122 315.485 132.891 316.829 131.82C318.196 130.727 319.826 129.872 321.717 129.257C323.631 128.642 325.773 128.334 328.143 128.334C330.945 128.334 333.44 128.812 335.628 129.77C337.838 130.704 339.57 132.117 340.823 134.008C342.099 135.899 342.737 138.28 342.737 141.151V157.284C342.737 159.13 342.851 160.714 343.079 162.035C343.33 163.334 343.694 164.462 344.173 165.419V166H334.979C334.546 165.066 334.215 163.881 333.987 162.445C333.759 160.987 333.646 159.551 333.646 158.139ZM334.91 143.476L334.979 148.842H329.271C327.858 148.842 326.616 148.99 325.545 149.286C324.474 149.56 323.597 149.97 322.913 150.517C322.229 151.041 321.717 151.679 321.375 152.431C321.033 153.16 320.862 153.992 320.862 154.926C320.862 155.837 321.067 156.658 321.478 157.387C321.91 158.116 322.526 158.697 323.323 159.13C324.144 159.54 325.101 159.745 326.194 159.745C327.789 159.745 329.179 159.426 330.364 158.788C331.549 158.127 332.472 157.33 333.133 156.396C333.794 155.461 334.147 154.573 334.192 153.729L336.79 157.626C336.471 158.56 335.993 159.551 335.354 160.6C334.716 161.648 333.896 162.628 332.894 163.539C331.891 164.451 330.683 165.202 329.271 165.795C327.858 166.387 326.217 166.684 324.349 166.684C321.956 166.684 319.814 166.205 317.923 165.248C316.032 164.291 314.539 162.981 313.445 161.317C312.352 159.654 311.805 157.763 311.805 155.644C311.805 153.684 312.169 151.952 312.898 150.448C313.628 148.944 314.71 147.68 316.146 146.654C317.581 145.606 319.358 144.82 321.478 144.296C323.619 143.749 326.069 143.476 328.826 143.476H334.91ZM361.16 161.898L371.072 129.018H380.745L365.911 171.605C365.569 172.517 365.125 173.508 364.578 174.579C364.054 175.65 363.348 176.664 362.459 177.621C361.57 178.601 360.454 179.398 359.109 180.014C357.788 180.629 356.181 180.937 354.29 180.937C353.47 180.937 352.741 180.88 352.103 180.766C351.465 180.652 350.792 180.504 350.086 180.321V173.554C350.314 173.576 350.576 173.588 350.872 173.588C351.191 173.611 351.465 173.622 351.692 173.622C353.014 173.622 354.108 173.463 354.974 173.144C355.84 172.847 356.535 172.357 357.059 171.674C357.605 171.013 358.061 170.147 358.426 169.076L361.16 161.898ZM356.272 129.018L364.646 156.259L366.116 165.795L359.896 166.923L346.531 129.018H356.272Z" fill="white"/>
</svg>
